<svg version="1.1" id="Layer_1" xmlns="http://www.w3.org/2000/svg" xmlns:xlink="http://www.w3.org/1999/xlink" x="0px" y="0px"
	 width="100%" viewBox="0 0 240 240" enable-background="new 0 0 240 240" xml:space="preserve">
<path fill="#000000" opacity="1.000000" stroke="none" 
	d="
M85.468620,241.000000 
	C70.549789,234.838104 56.633018,227.790817 44.854298,217.124557 
	C22.263527,196.667450 8.124963,171.621262 4.651681,141.180649 
	C-0.656976,94.654381 15.471827,56.705032 52.348938,28.098534 
	C76.179680,9.612440 103.686752,2.175860 133.841232,4.507841 
	C178.694077,7.976512 211.247635,30.260786 232.902634,69.135872 
	C235.963501,74.630745 238.023987,80.682877 240.773743,86.738541 
	C241.000000,94.687576 241.000000,102.375153 241.000000,110.531364 
	C238.756500,108.751877 239.438232,105.659798 238.922348,102.998001 
	C229.807724,55.967960 190.346741,18.547050 143.124176,11.149745 
	C82.312103,1.623670 24.957258,41.437012 11.579750,101.148628 
	C-0.567442,155.368637 30.857944,214.096344 83.027565,233.685638 
	C90.978065,236.670990 99.143814,238.748138 107.717133,240.719299 
	C100.645744,241.000000 93.291496,241.000000 85.468620,241.000000 
z"/>
<path fill="#000000" opacity="1.000000" stroke="none" 
	d="
M241.000000,163.531372 
	C236.013107,176.920883 229.851440,189.203461 221.266556,200.157730 
	C207.755966,217.397125 191.011429,230.345291 170.539780,238.347702 
	C168.844482,239.010406 167.210953,239.831116 165.274353,240.789215 
	C157.645752,241.000000 150.291504,241.000000 142.468628,241.000000 
	C143.574417,238.855972 146.003922,239.826172 148.026001,239.416916 
	C195.865692,229.734741 232.595505,190.723801 239.814880,141.871826 
	C239.884933,141.397781 240.184967,140.957718 240.688812,140.250900 
	C241.000000,147.687576 241.000000,155.375168 241.000000,163.531372 
z"/>
<path fill="#000000" opacity="1.000000" stroke="none" 
	d="
M68.938385,71.151443 
	C69.260361,69.960197 69.469131,69.155975 69.681046,68.352562 
	C70.330223,65.891350 70.947258,63.130802 74.247391,63.456703 
	C77.382431,63.766308 77.267174,66.433205 77.340988,68.825737 
	C77.441299,72.077408 79.335609,73.739784 82.289078,74.914108 
	C87.885956,77.139473 90.935738,82.425240 90.296600,87.951370 
	C90.024147,90.307022 89.219177,92.335434 86.528107,92.410095 
	C83.800667,92.485748 82.809464,90.642403 82.800850,88.133759 
	C82.799133,87.635101 82.812012,87.131378 82.749329,86.638741 
	C82.260666,82.798409 79.382675,81.228722 76.186363,80.809135 
	C72.919792,80.380318 73.024887,83.720177 72.438202,85.703171 
	C69.987045,93.988022 67.776001,102.344040 65.489738,110.677483 
	C64.345924,114.846703 62.411915,118.410904 58.219257,120.249146 
	C52.950581,122.559151 46.658165,121.180046 43.199009,116.980446 
	C39.705154,112.738731 39.409016,106.255157 42.495438,101.576622 
	C45.375938,97.210236 51.302929,94.864059 56.545822,96.820816 
	C60.713650,98.376343 61.935135,96.479935 62.843750,93.138710 
	C64.804214,85.929558 66.828461,78.737740 68.938385,71.151443 
z"/>
<path fill="#000000" opacity="1.000000" stroke="none" 
	d="
M148.999863,110.414627 
	C140.353989,110.404030 132.208115,110.400970 124.062302,110.376862 
	C121.697906,110.369865 118.985092,110.498085 118.926384,107.184280 
	C118.869240,103.959038 121.494446,103.696152 123.901314,103.695679 
	C148.338684,103.690895 172.776093,103.710747 197.213379,103.766701 
	C199.607498,103.772179 202.240524,104.035324 202.113388,107.311180 
	C201.981369,110.712975 199.160080,110.342957 196.878876,110.349655 
	C181.085953,110.396080 165.292892,110.397957 148.999863,110.414627 
z"/>
<path fill="#000000" opacity="1.000000" stroke="none" 
	d="
M191.928238,124.746750 
	C194.416107,124.779510 196.421967,124.717201 198.412308,124.864601 
	C200.643936,125.029861 202.346619,126.033943 202.165268,128.576431 
	C201.993683,130.981827 200.128311,131.348419 198.170197,131.355835 
	C192.171326,131.378571 186.172363,131.388809 180.173447,131.389526 
	C162.176498,131.391678 144.179550,131.388397 126.182610,131.382095 
	C124.849983,131.381638 123.515030,131.382324 122.185326,131.307861 
	C120.298225,131.202209 118.958298,130.342529 118.884705,128.306931 
	C118.810844,126.264130 120.194435,125.296280 121.967743,124.996506 
	C123.433731,124.748688 124.954361,124.766510 126.450859,124.765350 
	C148.113693,124.748520 169.776550,124.748375 191.928238,124.746750 
z"/>
<path fill="#000000" opacity="1.000000" stroke="none" 
	d="
M45.346432,166.601120 
	C44.019299,164.191086 43.739410,161.536835 41.421940,159.979050 
	C38.850925,166.891663 42.817959,174.900253 37.485172,181.672256 
	C34.771374,178.464493 36.628502,176.039917 36.696468,173.712723 
	C36.910236,166.393509 37.303944,159.084412 36.783871,151.760254 
	C36.631699,149.617279 36.339565,146.981796 39.254894,146.553452 
	C42.011124,146.148483 41.972435,148.911987 42.722980,150.623520 
	C45.902386,157.873779 48.811550,165.257141 53.371052,172.884079 
	C57.315166,167.294113 58.518261,161.407333 60.736580,156.015045 
	C61.613079,153.884445 62.115322,151.561523 62.496441,149.277542 
	C62.805813,147.423492 63.766399,146.598038 65.482910,146.651505 
	C67.422958,146.711914 67.276306,148.291397 67.309242,149.595734 
	C67.540268,158.744247 68.261971,167.847870 69.685463,176.892502 
	C70.006210,178.930481 69.537926,180.807953 67.222343,181.003540 
	C64.768661,181.210754 65.003380,179.042755 64.876953,177.436111 
	C64.422012,171.655151 64.005150,165.871185 63.501987,159.124146 
	C60.581352,165.458694 58.006184,170.962708 55.504269,176.499817 
	C53.918346,180.009720 52.166401,179.989716 50.408421,176.744019 
	C48.668106,173.530945 47.131626,170.207474 45.346432,166.601120 
z"/>
<path fill="#000000" opacity="1.000000" stroke="none" 
	d="
M131.630051,145.599884 
	C136.183426,145.670731 140.358429,145.558197 144.485367,145.950775 
	C146.286011,146.122055 148.818588,146.196991 149.325043,148.683823 
	C149.774689,150.891724 148.366760,152.429474 146.564301,153.568787 
	C146.007767,153.920563 145.471649,154.304657 144.751755,154.792053 
	C146.652939,157.451996 149.480804,157.180664 151.577667,158.187973 
	C154.053818,159.377487 156.181381,160.897385 158.050995,162.736465 
	C163.002670,167.607269 162.402084,174.310440 156.510422,177.950638 
	C151.370392,181.126465 145.778748,183.223755 139.509003,182.436783 
	C135.755325,181.965637 131.999039,181.515335 127.841835,181.006439 
	C130.635132,177.013275 129.972733,172.735703 129.869263,168.735260 
	C129.694229,161.969406 130.760345,155.079407 128.505722,148.441833 
	C127.601524,145.779922 129.553879,145.818924 131.630051,145.599884 
M134.182556,166.616852 
	C134.213684,167.446579 134.266998,168.276138 134.272568,169.106033 
	C134.346069,180.066498 137.767151,182.443268 148.366470,178.742325 
	C150.218781,178.095581 152.058197,177.182083 153.637207,176.027496 
	C157.643951,173.097733 158.000687,169.032410 154.660812,165.355438 
	C151.521729,161.899506 147.344208,160.321289 142.948013,159.178497 
	C135.100983,157.138687 134.131058,157.844818 134.182556,166.616852 
M133.903412,149.301132 
	C133.175858,152.243271 133.469757,154.830658 137.222702,154.723862 
	C140.136337,154.640961 144.155304,154.079987 144.192795,150.713272 
	C144.232559,147.140701 140.090195,148.008759 137.546600,147.691803 
	C136.544098,147.566879 135.425781,148.371384 133.903412,149.301132 
z"/>
<path fill="#000000" opacity="1.000000" stroke="none" 
	d="
M76.961502,98.974457 
	C78.642586,101.208221 80.275124,102.348587 83.049316,102.135361 
	C86.633171,101.859901 89.490929,103.591431 91.053345,106.971039 
	C91.637154,108.233864 91.689537,109.635910 90.418678,110.593552 
	C89.066917,111.612167 87.845406,111.025841 86.964897,109.860565 
	C85.544388,107.980667 83.839615,106.428246 81.537460,107.907341 
	C79.237663,109.384918 80.995888,111.583130 81.400146,113.367249 
	C82.389999,117.735741 83.650696,122.042229 84.762733,126.383835 
	C86.120438,131.684662 84.155678,135.985458 79.797775,137.348953 
	C75.686874,138.635178 71.381622,136.756927 69.801796,132.988022 
	C67.954597,128.581253 69.670715,124.216934 74.693741,122.097679 
	C77.574013,120.882462 77.943207,119.415306 77.152214,116.721245 
	C75.797508,112.107155 74.721344,107.411118 73.536789,102.747314 
	C72.850021,100.043396 72.891571,97.899010 76.961502,98.974457 
z"/>
<path fill="#000000" opacity="1.000000" stroke="none" 
	d="
M126.992447,94.112762 
	C120.006081,96.879776 118.739922,96.031754 118.695480,88.859474 
	C118.666672,84.211327 118.679588,79.562622 118.714149,74.914467 
	C118.745255,70.732819 121.007797,69.508942 124.596077,71.040070 
	C130.545258,73.578621 136.449707,76.248634 142.228607,79.150803 
	C146.470001,81.280838 146.445190,84.666550 142.175674,86.910896 
	C137.333145,89.456459 132.291901,91.623970 126.992447,94.112762 
M131.711624,84.554611 
	C133.119247,83.701744 133.875259,82.586952 131.967163,81.671593 
	C129.981583,80.719078 128.155487,79.054298 125.467369,79.371063 
	C125.240433,81.993721 124.935242,84.381935 125.936020,87.228958 
	C127.871277,86.334343 129.495163,85.583664 131.711624,84.554611 
z"/>
<path fill="#000000" opacity="1.000000" stroke="none" 
	d="
M169.002197,79.640701 
	C178.470474,79.654991 187.439407,79.638474 196.407654,79.708443 
	C198.821655,79.727264 202.009918,79.240784 202.067490,82.861671 
	C202.130661,86.834038 198.764069,86.297188 196.182739,86.306992 
	C183.062027,86.356773 169.941025,86.361778 156.820206,86.335709 
	C154.233017,86.330566 150.834076,86.885010 150.945923,82.911369 
	C151.056290,78.990837 154.511475,79.746239 157.043289,79.677361 
	C160.860550,79.573509 164.682587,79.645256 169.002197,79.640701 
z"/>
<path fill="#000000" opacity="1.000000" stroke="none" 
	d="
M198.011887,174.020905 
	C196.647217,166.479523 198.957428,162.154709 206.137894,160.627502 
	C210.226517,159.757874 211.397781,157.890030 210.915115,154.122391 
	C210.683548,152.314865 210.771545,150.465485 210.730392,148.634705 
	C210.681824,146.474960 211.519409,145.147415 214.464569,145.257507 
	C215.809921,149.908386 213.885071,154.640976 214.387619,159.328949 
	C214.826904,163.426666 214.300339,167.612503 215.132538,171.745743 
	C215.655396,174.342514 215.195816,176.114563 211.593048,176.025253 
	C207.177643,175.915771 202.648590,177.509155 198.299774,174.239105 
	C198.001907,174.003220 198.011887,174.020905 198.011887,174.020905 
M208.982941,173.481064 
	C211.671097,170.514145 212.149933,166.944794 209.297943,164.358704 
	C206.900620,162.184906 203.880585,163.489655 202.080841,166.246262 
	C199.599960,170.046127 202.466644,173.483643 208.982941,173.481064 
z"/>
<path fill="#000000" opacity="1.000000" stroke="none" 
	d="
M86.797256,160.960999 
	C89.486130,165.348892 86.659172,169.939102 88.033882,174.245163 
	C88.072136,174.364975 87.966156,174.606979 87.852982,174.687943 
	C84.526825,177.067657 80.633560,175.926529 77.002777,176.335510 
	C74.602852,176.605820 73.292679,174.797974 73.068878,172.663376 
	C72.758522,169.703262 72.821075,166.699295 72.816124,163.713943 
	C72.813652,162.224716 73.557228,161.011520 75.144211,161.029144 
	C76.951706,161.049210 77.106300,162.546387 77.008842,163.930878 
	C76.892471,165.583878 76.618454,167.225128 76.455742,168.875702 
	C76.217445,171.293121 76.767097,173.341583 79.612038,173.534027 
	C82.542465,173.732239 83.779388,171.853439 83.941200,169.197083 
	C84.041862,167.544632 83.876152,165.877380 83.871407,164.216660 
	C83.866348,162.444550 84.084610,160.804688 86.797256,160.960999 
z"/>
<path fill="#000000" opacity="1.000000" stroke="none" 
	d="
M97.824661,164.988510 
	C101.302437,164.975830 104.032707,165.880219 104.120880,169.492279 
	C104.203072,172.859482 101.979355,175.027252 98.848457,175.905426 
	C95.741280,176.776978 92.556999,176.995865 90.082466,174.257477 
	C89.344749,173.441101 89.332649,172.368683 90.206230,171.588013 
	C91.383858,170.535599 92.194443,171.389297 93.168518,172.168884 
	C97.028687,175.258347 98.306190,174.870468 99.910172,170.251755 
	C98.469521,168.331497 96.263756,169.187698 94.404770,168.811722 
	C92.705711,168.468109 91.094513,167.992737 90.695221,166.035980 
	C90.274948,163.976425 91.827805,163.089355 93.254852,162.215958 
	C96.185135,160.422516 99.211342,159.652878 102.728401,161.392624 
	C101.246689,164.957672 97.972687,163.536072 94.347420,164.402130 
	C96.264435,164.750717 96.878471,164.862366 97.824661,164.988510 
z"/>
<path fill="#000000" opacity="1.000000" stroke="none" 
	d="
M170.522232,160.817566 
	C174.894196,160.369110 178.947067,160.398117 180.742813,164.669998 
	C182.186630,168.104721 181.381393,171.710281 178.414978,174.170486 
	C174.764908,177.197662 170.278717,177.189529 166.171051,175.624664 
	C161.798599,173.958908 161.222717,167.166809 164.983307,163.853409 
	C166.433548,162.575623 168.383194,161.864670 170.522232,160.817566 
M167.999863,172.411713 
	C169.855942,173.967407 171.817444,175.293167 174.247742,173.670731 
	C177.003754,171.830841 178.512863,169.401123 176.843216,166.068222 
	C175.522720,163.432281 173.574585,161.663452 170.479507,163.430145 
	C167.144424,165.333862 164.923172,167.814606 167.999863,172.411713 
z"/>
<path fill="#000000" opacity="1.000000" stroke="none" 
	d="
M197.997330,173.995758 
	C196.580841,176.501633 194.684799,176.888306 192.929306,174.600571 
	C190.232590,171.086166 187.927658,170.626129 185.414490,174.706467 
	C184.834229,175.648575 183.839264,176.480072 181.728363,175.274567 
	C185.853210,171.045776 187.882996,166.473862 181.045242,162.688370 
	C186.015488,158.361618 186.798462,164.349884 189.643372,164.968964 
	C192.124207,164.736404 191.862518,160.435287 196.162552,161.020142 
	C191.794830,165.921783 191.365463,170.396057 197.754089,173.813431 
	C198.011887,174.020905 198.001907,174.003220 197.997330,173.995758 
z"/>
<path fill="#000000" opacity="1.000000" stroke="none" 
	d="
M116.539795,171.436279 
	C119.850822,175.663116 123.358116,172.774033 126.784157,172.070740 
	C125.812523,175.775574 120.925896,177.513687 116.439774,176.000748 
	C112.590363,174.702545 110.754875,170.753387 112.125000,166.717316 
	C114.025665,161.118454 119.268188,159.013123 125.853767,161.685883 
	C122.604240,164.981827 112.063263,161.245804 116.539795,171.436279 
z"/>
<path fill="#000000" opacity="1.000000" stroke="none" 
	d="
M106.022896,166.584503 
	C105.898315,163.719482 104.559685,160.531311 110.108955,160.802490 
	C108.417557,165.515854 112.703331,170.823425 107.497963,175.387558 
	C104.725098,172.547485 106.519058,169.593674 106.022896,166.584503 
z"/>
</svg>